<svg xmlns="http://www.w3.org/2000/svg" viewBox="0 0 250 250">
  <polygon fill="#DD0031" points="125,30 125,30 125,30 31.9,63.2 46.1,186.3 125,230 125,230 125,230 203.9,186.3 218.1,63.2"/>
  <polygon fill="#C3002F" points="125,30 125,52.2 125,52.2 125,153.4 125,153.4 125,230 125,230 203.9,186.3 218.1,63.2"/>
  <polygon fill="#FFFFFF" points="125,52.2 125,153.4 125,153.4 90.4,153.4 90.4,153.4 125,52.2"/>
  <polygon fill="#FFFFFF" points="125,52.2 125,153.4 125,153.4 159.6,153.4 159.6,153.4 125,52.2"/>
</svg>