<svg xmlns="http://www.w3.org/2000/svg" viewBox="0 0 438.533 438.533">
  <path fill="#FFCA28" d="M120.3,371.033l-3.5-3.5c-3.1-3.1-4.7-7.2-4.7-11.3V82.333c0-4.1,1.6-8.2,4.7-11.3l3.5-3.5c3.1-3.1,7.2-4.7,11.3-4.7h29.2c4.1,0,8.2,1.6,11.3,4.7l3.5,3.5c3.1,3.1,4.7,7.2,4.7,11.3v273.9c0,4.1-1.6,8.2-4.7,11.3l-3.5,3.5c-3.1,3.1-7.2,4.7-11.3,4.7h-29.2C127.5,375.733,123.4,374.133,120.3,371.033z"/>
  <path fill="#FFA000" d="M298.4,371.033l-3.5-3.5c-3.1-3.1-4.7-7.2-4.7-11.3V82.333c0-4.1,1.6-8.2,4.7-11.3l3.5-3.5c3.1-3.1,7.2-4.7,11.3-4.7h29.2c4.1,0,8.2,1.6,11.3,4.7l3.5,3.5c3.1,3.1,4.7,7.2,4.7,11.3v273.9c0,4.1-1.6,8.2-4.7,11.3l-3.5,3.5c-3.1,3.1-7.2,4.7-11.3,4.7h-29.2C305.6,375.733,301.5,374.133,298.4,371.033z"/>
  <path fill="#FFC107" d="M209.4,264.033l-3.5-3.5c-3.1-3.1-4.7-7.2-4.7-11.3V82.333c0-4.1,1.6-8.2,4.7-11.3l3.5-3.5c3.1-3.1,7.2-4.7,11.3-4.7h29.2c4.1,0,8.2,1.6,11.3,4.7l3.5,3.5c3.1,3.1,4.7,7.2,4.7,11.3v166.9c0,4.1-1.6,8.2-4.7,11.3l-3.5,3.5c-3.1,3.1-7.2,4.7-11.3,4.7h-29.2C216.6,268.733,212.5,267.133,209.4,264.033z"/>
</svg>