<svg xmlns="http://www.w3.org/2000/svg" viewBox="0 0 512 512">
  <path fill="#007bff" d="M499.2,16.8c-7.3-7.2-17.3-10.8-27.3-10.8H40.1c-10,0-20,3.6-27.3,10.8C5.6,24,2,34,2,44v424c0,10,3.6,20,10.8,27.2c7.2,7.2,17.2,10.8,27.2,10.8h431.9c10,0,20-3.6,27.2-10.8c7.2-7.2,10.8-17.2,10.8-27.2V44C510,34,506.4,24,499.2,16.8z M256,464L256,464L256,464L256,464z"/>
  <path fill="#ffffff" d="M256,48L256,48L256,48L256,48z"/>
  <path fill="#ffffff" d="M112,112h288v288H112z"/>
  <path fill="#007bff" d="M256,128l-64,64l64,64l-64,64l64,64l64-64l-64-64l64-64l-64-64z"/>
</svg>